<?xml version="1.0" encoding="utf-8"?>
<!-- Generator: Adobe Illustrator 17.0.2, SVG Export Plug-In . SVG Version: 6.00 Build 0)  -->
<!DOCTYPE svg PUBLIC "-//W3C//DTD SVG 1.1//EN" "http://www.w3.org/Graphics/SVG/1.1/DTD/svg11.dtd">
<svg version="1.1" id="Layer_1" xmlns="http://www.w3.org/2000/svg" xmlns:xlink="http://www.w3.org/1999/xlink" x="0px" y="0px"
	 width="612px" height="792px" viewBox="0 0 612 792" enable-background="new 0 0 612 792" xml:space="preserve">
<path fill-rule="evenodd" clip-rule="evenodd" fill="#4E4B4B" d="M186.57,136.195l-27.846,27.846l11.037,11.037l14.324-14.324
	l10.075,10.075c13.798,13.798,10.21,26.768-3.314,40.292l-29.809,29.809c-12.97,12.97-27.322,19.594-44.707,2.209l-37.534-37.533
	c-17.385-17.386-10.762-31.737,2.209-44.707l12.008-12.009c33.394-33.394,37.778-39.97,59.058-19.045l14.243-14.242l-3.588-3.588
	c-26.896-26.896-48.186-6.731-66.125,11.208l-28.015,28.015c-27.046,27.046-23.46,47.746,1.792,72.998l27.322,27.322
	c25.252,25.252,45.952,28.838,72.997,1.792l32.706-32.706c24.976-24.976,24.149-43.465-3.036-70.65L186.57,136.195z"/>
<rect x="75.909" y="175.419" transform="matrix(-0.7071 -0.7071 0.7071 -0.7071 81.4616 421.9696)" fill-rule="evenodd" clip-rule="evenodd" fill="#AA1F23" width="104.429" height="37.39"/>
<rect x="57.825" y="114.603" transform="matrix(-0.7071 -0.7071 0.7071 -0.7071 20.6458 275.1468)" fill-rule="evenodd" clip-rule="evenodd" fill="#AA1F23" width="18.964" height="37.39"/>
<rect x="147.258" y="141.221" transform="matrix(-0.7071 0.7071 -0.7071 -0.7071 361.3104 154.2482)" fill-rule="evenodd" clip-rule="evenodd" fill="#FFFFFF" width="2.905" height="21.459"/>
<polygon fill-rule="evenodd" clip-rule="evenodd" fill="#FFFFFF" points="164.355,151.611 166.41,149.557 153.08,136.227 
	180.305,135.661 183.365,132.602 168.191,117.428 166.137,119.481 179.467,132.811 152.241,133.377 149.182,136.437 "/>
<path fill-rule="evenodd" clip-rule="evenodd" fill="#FFFFFF" d="M183.228,125.503c3.312,3.312,6.476,1.195,9.473-1.802l5.701-5.701
	c3.039-3.039,5.826-6.371,2.096-10.102l-0.985-0.985c-2.578-2.578-5.408-2.054-9.41,1.949l-6.078,6.078
	c-3.207,3.207-4.38,3.165-6.182,1.362c-2.494-2.494-1.3-4.107,2.662-8.069l2.18-2.18c5.386-5.386,6.078-5.198,8.53-2.83l1.928-1.928
	l-0.524-0.524c-2.704-2.704-5.281-2.724-10.374,2.368l-4.422,4.422c-4.234,4.233-5.512,7.062-2.054,10.521
	c4.024,4.024,6.455,2.347,12.722-3.919l3.898-3.898c2.557-2.557,3.793-2.829,5.701-0.922c2.179,2.179,1.928,3.688-1.048,6.664
	l-6.371,6.371c-2.557,2.557-4.066,2.641-5.554,1.153l-1.069-1.069l-1.928,1.928L183.228,125.503z"/>
<rect x="199.327" y="89.898" transform="matrix(-0.7071 0.7071 -0.7071 -0.7071 413.9082 29.815)" fill-rule="evenodd" clip-rule="evenodd" fill="#FFFFFF" width="2.905" height="21.459"/>
<path fill-rule="evenodd" clip-rule="evenodd" fill="#FFFFFF" d="M212.675,104.006l12.198-12.198
	c5.156-5.156,4.527-8.551-1.048-14.126c-5.994-5.994-8.97-6.204-14.063-1.111l-12.261,12.261L212.675,104.006z M222.589,80.554
	c4.548,4.548,3.374,6.811,0.88,9.305l-10.416,10.416l-11.821-11.821l10.752-10.751c2.515-2.515,4.674-3.081,9.054,1.299
	L222.589,80.554z"/>
<polygon fill-rule="evenodd" clip-rule="evenodd" fill="#FFFFFF" points="233.586,83.148 248.571,68.162 246.894,66.486 
	233.963,79.417 228.661,74.115 241.005,61.77 239.329,60.093 226.984,72.438 222.142,67.596 234.99,54.749 233.313,53.072 
	218.412,67.974 "/>
<path fill-rule="evenodd" clip-rule="evenodd" fill="#AA1F23" d="M211.375,124.961l-7.308,7.308l1.246,1.246l5.781-5.781
	l1.138,1.138c1.558,1.558,1.153,3.023-0.374,4.55l-5.968,5.968c-1.465,1.465-3.085,2.213-5.049,0.25l-4.239-4.239
	c-1.963-1.963-1.215-3.584,0.249-5.049l3.958-3.958c3.771-3.771,4.566-4.254,6.669-2.151l1.434-1.434l-0.405-0.405
	c-2.602-2.602-5.267-0.935-7.293,1.091l-5.766,5.766c-3.054,3.054-2.649,5.392,0.202,8.243l3.086,3.085
	c2.852,2.852,5.189,3.257,8.243,0.202l6.295-6.295c2.82-2.821,2.727-4.908-0.343-7.978L211.375,124.961z"/>
<path fill="none" stroke="#AA1F23" stroke-width="2.1693" stroke-miterlimit="3.8636" d="M211.375,124.961l-7.308,7.308l1.246,1.246
	l5.781-5.781l1.138,1.138c1.558,1.558,1.153,3.023-0.374,4.55l-5.968,5.968c-1.465,1.465-3.085,2.213-5.049,0.25l-4.239-4.239
	c-1.963-1.963-1.215-3.584,0.249-5.049l3.958-3.958c3.771-3.771,4.566-4.254,6.669-2.151l1.434-1.434l-0.405-0.405
	c-2.602-2.602-5.267-0.935-7.293,1.091l-5.766,5.766c-3.054,3.054-2.649,5.392,0.202,8.243l3.086,3.085
	c2.852,2.852,5.189,3.257,8.243,0.202l6.295-6.295c2.82-2.821,2.727-4.908-0.343-7.978L211.375,124.961z"/>
<path fill-rule="evenodd" clip-rule="evenodd" fill="#AA1F23" d="M216.665,122.663c2.852,2.852,5.189,3.256,8.243,0.202l6.498-6.498
	c3.054-3.054,2.649-5.391-0.203-8.243l-3.086-3.085c-2.851-2.852-5.189-3.257-8.243-0.203l-6.498,6.498
	c-3.054,3.054-2.649,5.392,0.202,8.243L216.665,122.663z M230.253,110.228c1.964,1.963,1.215,3.584-0.249,5.049l-6.186,6.186
	c-1.465,1.465-3.085,2.213-5.049,0.25l-4.239-4.239c-1.963-1.963-1.215-3.584,0.249-5.049l6.186-6.186
	c1.465-1.465,3.085-2.213,5.049-0.249L230.253,110.228z"/>
<path fill="none" stroke="#AA1F23" stroke-width="2.1693" stroke-miterlimit="3.8636" d="M216.665,122.663
	c2.852,2.852,5.189,3.256,8.243,0.202l6.498-6.498c3.054-3.054,2.649-5.391-0.203-8.243l-3.086-3.085
	c-2.851-2.852-5.189-3.257-8.243-0.203l-6.498,6.498c-3.054,3.054-2.649,5.392,0.202,8.243L216.665,122.663z M230.253,110.228
	c1.964,1.963,1.215,3.584-0.249,5.049l-6.186,6.186c-1.465,1.465-3.085,2.213-5.049,0.25l-4.239-4.239
	c-1.963-1.963-1.215-3.584,0.249-5.049l6.186-6.186c1.465-1.465,3.085-2.213,5.049-0.249L230.253,110.228z"/>
<polygon fill-rule="evenodd" clip-rule="evenodd" fill="#AA1F23" points="239.397,108.127 249.682,97.842 248.436,96.596 
	239.678,105.353 229.643,95.318 228.116,96.845 "/>
<polygon fill="none" stroke="#AA1F23" stroke-width="2.1693" stroke-miterlimit="3.8636" points="239.397,108.127 249.682,97.842 
	248.436,96.596 239.678,105.353 229.643,95.318 228.116,96.845 "/>
<polygon fill-rule="evenodd" clip-rule="evenodd" fill="#AA1F23" points="252.714,94.81 254.241,93.283 249.052,88.094 
	257.919,79.228 256.672,77.981 247.806,86.847 244.206,83.248 253.431,74.023 252.184,72.776 241.432,83.528 "/>
<polygon fill="none" stroke="#AA1F23" stroke-width="2.1693" stroke-miterlimit="3.8636" points="252.714,94.81 254.241,93.283 
	249.052,88.094 257.919,79.228 256.672,77.981 247.806,86.847 244.206,83.248 253.431,74.023 252.184,72.776 241.432,83.528 "/>
<rect x="207.556" y="146.396" transform="matrix(-0.7072 0.707 -0.707 -0.7072 461.2567 109.0367)" fill-rule="evenodd" clip-rule="evenodd" fill="#FFFFFF" width="0.985" height="7.28"/>
<polygon fill-rule="evenodd" clip-rule="evenodd" fill="#FFFFFF" points="212.096,151.136 212.793,150.439 208.271,145.917 
	217.507,145.725 218.546,144.687 213.398,139.539 212.701,140.236 217.223,144.758 207.987,144.95 206.949,145.988 "/>
<path fill-rule="evenodd" clip-rule="evenodd" fill="#FFFFFF" d="M217.522,141.861c1.301,1.301,2.368,1.486,3.762,0.092l2.631-2.631
	c1.443-1.443,1.237-2.247,0.306-3.178l-0.348-0.348l-0.654,0.654l0.32,0.32c0.697,0.697,0.626,1.166-0.313,2.104l-2.439,2.439
	c-0.668,0.668-1.408,1.01-2.304,0.114l-1.934-1.934c-0.896-0.896-0.554-1.635,0.114-2.304l2.418-2.417
	c0.64-0.64,1.223-1.138,2.097-0.263l0.234,0.235l0.612-0.612l-0.441-0.441c-0.69-0.689-1.628-0.931-2.894,0.334l-2.666,2.666
	c-1.394,1.394-1.209,2.46,0.092,3.761L217.522,141.861z"/>
<rect x="225.836" y="135.351" transform="matrix(-0.7072 0.7071 -0.7071 -0.7072 482.6405 72.0534)" fill-rule="evenodd" clip-rule="evenodd" fill="#FFFFFF" width="1.126" height="1.247"/>
</svg>
